<svg width="125" height="86" viewBox="0 0 125 86" fill="none" xmlns="http://www.w3.org/2000/svg">
<path d="M39.8238 41.1049C40.0086 41.1055 40.1857 41.1792 40.3164 41.3099C40.4471 41.4406 40.5209 41.6177 40.5215 41.8026V85.0557C40.5209 85.2405 40.4471 85.4176 40.3164 85.5483C40.1857 85.679 40.0086 85.7527 39.8238 85.7534H30.3442C30.1319 85.7412 29.925 85.6826 29.7379 85.5817C29.5508 85.4808 29.3881 85.3401 29.2612 85.1695L11.8403 58.7971C11.6296 58.4749 11.4576 58.5282 11.4576 58.911V85.0557C11.4569 85.2405 11.3832 85.4176 11.2525 85.5483C11.1218 85.679 10.9447 85.7527 10.7598 85.7534H1.27779C1.09294 85.7527 0.915845 85.679 0.785137 85.5483C0.65443 85.4176 0.580717 85.2405 0.580078 85.0557V41.8026C0.580717 41.6177 0.65443 41.4406 0.785137 41.3099C0.915845 41.1792 1.09294 41.1055 1.27779 41.1049H10.7598C10.9716 41.1174 11.1781 41.1762 11.3648 41.2771C11.5514 41.3779 11.7138 41.5184 11.8403 41.6887L29.2637 68.1895C29.4744 68.5093 29.6464 68.4584 29.6464 68.0732V41.8026C29.6471 41.6177 29.7208 41.4406 29.8515 41.3099C29.9822 41.1792 30.1593 41.1055 30.3442 41.1049H39.8238Z" fill="white"/>
<path d="M111.6 60.2942C111.635 60.3659 111.689 60.4263 111.757 60.4686C111.824 60.5109 111.902 60.5333 111.982 60.5333C112.062 60.5333 112.14 60.5109 112.207 60.4686C112.275 60.4263 112.329 60.3659 112.364 60.2942L124.525 41.6935C124.733 41.3737 124.593 41.1096 124.208 41.1096H113.265C113.053 41.1222 112.846 41.181 112.66 41.2818C112.473 41.3827 112.311 41.5232 112.184 41.6935L106.193 50.8461C106.091 51.0236 106.037 51.2249 106.037 51.4299C106.037 51.6349 106.091 51.8362 106.193 52.0137L111.6 60.2942Z" fill="white"/>
<path d="M104.522 54.5769L103.759 53.4092L96.0959 41.6887C95.9693 41.5184 95.807 41.3779 95.6204 41.2771C95.4337 41.1762 95.2272 41.1174 95.0154 41.1049H84.0725C83.6898 41.1049 83.5468 41.3689 83.7576 41.6887L97.5907 62.8453C97.6931 63.0228 97.7471 63.2241 97.7471 63.4291C97.7471 63.6341 97.6931 63.8355 97.5907 64.013L83.7576 85.1695C83.5468 85.4893 83.6898 85.7534 84.0725 85.7534H95.0106C95.2224 85.7408 95.4289 85.682 95.6155 85.5812C95.8022 85.4803 95.9645 85.3398 96.0911 85.1695L103.754 73.449L104.517 72.2813L109.924 64.013C110.027 63.8355 110.081 63.6341 110.081 63.4291C110.081 63.2241 110.027 63.0228 109.924 62.8453L104.522 54.5769Z" fill="white"/>
<path d="M112.364 66.5689C112.329 66.4972 112.275 66.4367 112.207 66.3944C112.14 66.3521 112.062 66.3297 111.982 66.3297C111.902 66.3297 111.824 66.3521 111.757 66.3944C111.689 66.4367 111.635 66.4972 111.6 66.5689L106.193 74.8299C106.091 75.0074 106.037 75.2088 106.037 75.4138C106.037 75.6188 106.091 75.8201 106.193 75.9976L112.184 85.1623C112.311 85.3326 112.473 85.4731 112.66 85.574C112.846 85.6748 113.053 85.7336 113.265 85.7462H124.208C124.593 85.7462 124.733 85.4821 124.525 85.1623L112.364 66.5689Z" fill="white"/>
<path d="M78.6629 85.7534C78.8634 85.7534 79.0556 85.6738 79.1974 85.532C79.3391 85.3903 79.4187 85.198 79.4187 84.9975V76.9642C79.4181 76.7641 79.3382 76.5725 79.1965 76.4313C79.0548 76.2901 78.8629 76.2108 78.6629 76.2108H56.6172C56.4485 76.2093 56.2851 76.1511 56.1533 76.0457C56.0215 75.9403 55.929 75.7936 55.8904 75.6293V51.3307C55.9023 51.1689 55.9659 51.0154 56.072 50.8927C56.178 50.7701 56.3208 50.6849 56.4791 50.6499H78.6241C78.8242 50.6499 79.0161 50.5706 79.1577 50.4294C79.2994 50.2882 79.3793 50.0965 79.38 49.8965V41.8607C79.38 41.7614 79.3604 41.6632 79.3224 41.5715C79.2845 41.4798 79.2288 41.3964 79.1586 41.3262C79.0884 41.2561 79.0051 41.2004 78.9134 41.1624C78.8217 41.1244 78.7234 41.1049 78.6241 41.1049H55.6433C53.1724 41.1043 50.7996 42.0717 49.0334 43.7998C47.2673 45.5279 46.2484 47.8791 46.1952 50.3495C46.1661 50.6693 46.1492 50.9915 46.1492 51.3185V75.5446C46.1492 75.8716 46.1661 76.1938 46.1952 76.5136C46.249 78.9835 47.2682 81.3341 49.0343 83.0617C50.8003 84.7893 53.1728 85.7564 55.6433 85.7558L78.6629 85.7534Z" fill="white"/>
<path d="M0.674561 0.434326V35.4046H125V0.434326H0.674561ZM32.5414 17.6832L45.7495 24.6409L31.2962 32.2649H4.88989L32.5414 17.6832ZM48.9812 26.3392L60.2269 32.2649H37.7258L48.9812 26.3392ZM85.7321 3.56675L48.894 22.9863L32.5414 14.3691L3.81425 29.5031V3.58128L85.7321 3.56675ZM121.86 32.2649H66.4385L52.0797 24.6991L91.6771 3.83081L121.86 19.7352V32.2649ZM97.4889 3.57402H121.86V16.4138L97.4889 3.57402Z" fill="white"/>
</svg>
