<svg xmlns="http://www.w3.org/2000/svg" fill="none" viewBox="0 0 32 32">
  <path fill="#fff" fill-rule="evenodd" d="M32 16c0 8.8366-7.1634 16-16 16-8.83656 0-16-7.1634-16-16C0 7.16344 7.16344 0 16 0c8.8366 0 16 7.16344 16 16Zm-19.3374 0c0-1.8362 1.4985-3.3348 3.3347-3.3348 1.8362 0 3.3347 1.4986 3.3347 3.3348s-1.4985 3.3348-3.3347 3.3348c-1.8362 0-3.3347-1.4986-3.3347-3.3348Zm13.3367-.5051c-.0002.1682-.0004.3365-.0004.5051 0 .1885.0003.3767.0005.5648.0018 1.1899.0036 2.3727-.0656 3.563-.0775 1.6011-.4402 3.0195-1.6135 4.1928-1.1708 1.1708-2.5917 1.5361-4.1928 1.6136-1.2102.0681-2.4126.0668-3.6226.0654a424.8317 424.8317 0 0 0-1.0092 0c-1.2084.0014-2.4112.0027-3.6236-.0654-1.6011-.0775-3.01948-.4403-4.19275-1.6136-1.17077-1.1708-1.53601-2.5917-1.61356-4.1928-.06809-1.2103-.06676-2.4147-.06542-3.6236A445.48 445.48 0 0 0 6.00074 16a445.48 445.48 0 0 0-.00037-.5042c-.00134-1.2084-.00267-2.4112.06542-3.6236.07755-1.6011.44029-3.01953 1.61356-4.19282C8.85012 6.50859 10.271 6.14334 11.8721 6.06579c1.2102-.06809 2.4126-.06676 3.6226-.06542.1682.00019.3366.00037.5051.00037.1682 0 .3363-.00018.5042-.00037 1.2084-.00134 2.4111-.00267 3.6235.06542 1.6011.07755 3.0195.4403 4.1928 1.61359 1.1708 1.17079 1.536 2.59172 1.6135 4.19282.0681 1.2102.0668 2.4127.0655 3.6227ZM10.8664 16c0 2.8394 2.2915 5.131 5.1309 5.131 2.8394 0 5.1309-2.2916 5.1309-5.131 0-2.8394-2.2915-5.131-5.1309-5.131-2.8394 0-5.1309 2.2916-5.1309 5.131Zm9.2736-5.3411c0 .6629.5354 1.1983 1.1983 1.1983.1574.0002.3133-.0307.4588-.0908.1455-.0602.2777-.1484.389-.2597.1113-.1113.1995-.2435.2597-.389.0601-.1455.091-.3014.0908-.4588 0-.66296-.5353-1.19832-1.1983-1.19832-.6629 0-1.1983.53536-1.1983 1.19832Z" clip-rule="evenodd"/>
</svg>
