<svg width="29" height="20" viewBox="0 0 29 20" fill="none" xmlns="http://www.w3.org/2000/svg">
<path d="M15.8863 12.5748C15.8863 17.0076 18.2093 19.9883 22.2558 19.9883C25.478 19.9883 27.7261 17.9247 27.7261 14.9441C27.7261 11.7341 24.8036 9.28841 21.1318 10.4348C21.8062 7.07201 24.8786 5.00846 29 5.16131V1.03422C21.5065 0.422799 15.8863 6.00202 15.8863 12.5748ZM0 12.5748C0 17.0076 2.323 19.9883 6.36951 19.9883C9.59173 19.9883 11.9147 17.9247 11.9147 14.9441C11.9147 11.7341 8.91731 9.28841 5.32041 10.4348C5.9199 7.07201 8.99225 5.00846 13.1886 5.16131V1.03422C5.62016 0.422799 0 6.00202 0 12.5748Z" fill="#527C64"/>
</svg>
