<svg width="32" height="32" viewBox="0 0 32 32" fill="none" xmlns="http://www.w3.org/2000/svg">
<path fill-rule="evenodd" clip-rule="evenodd" d="M32 16C32 24.8366 24.8366 32 16 32C7.16344 32 0 24.8366 0 16C0 7.16344 7.16344 0 16 0C24.8366 0 32 7.16344 32 16ZM23.893 10.6932C24.7237 10.5942 25.5142 10.3737 26.25 10.0472C25.6998 10.87 25.0045 11.5927 24.202 12.1705C24.2098 12.3462 24.2143 12.5235 24.2143 12.7012C24.2143 18.1232 20.087 24.3757 12.54 24.3757C10.223 24.3757 8.06575 23.6965 6.25 22.5322C6.57075 22.5705 6.8975 22.5895 7.22875 22.5895C9.15125 22.5895 10.9205 21.9337 12.3247 20.8335C10.5293 20.8007 9.014 19.614 8.49175 17.9837C8.74225 18.0317 8.99925 18.0575 9.26375 18.0575C9.638 18.0575 10.0002 18.0075 10.3448 17.9137C8.4675 17.5365 7.05325 15.879 7.05325 13.8905V13.8904C7.05325 13.8732 7.05325 13.856 7.05375 13.8387C7.60675 14.1462 8.23975 14.331 8.91225 14.3522C7.81125 13.6165 7.08675 12.3605 7.08675 10.937C7.08675 10.185 7.28925 9.48 7.6425 8.87425C9.66625 11.3565 12.6895 12.99 16.1 13.1612C16.03 12.8607 15.9935 12.5477 15.9935 12.226C15.9935 9.96025 17.8307 8.123 20.097 8.123C21.2768 8.123 22.3433 8.6215 23.0917 9.419C24.0262 9.235 24.9045 8.8935 25.6973 8.42325C25.3905 9.38125 24.7405 10.1855 23.893 10.6932Z" fill="white"/>
</svg>
