<svg xmlns="http://www.w3.org/2000/svg" fill="#fff" width="32" height="32" viewBox="0 0 32 32">
  <path d="M32 16c0 8.8366-7.1634 16-16 16-8.83656 0-16-7.1634-16-16C0 7.16344 7.16344 0 16 0c8.8366 0 16 7.16344 16 16ZM16.1932 9h-.1224v.00125h-.2654a151.4947 151.4947 0 0 0-3.9272.06352l-.2352.00872-.1182.00374-.2365.00748-.2338.00871c-1.52634.06229-2.97981.16194-3.64947.32388-.46703.11446-.89262.33814-1.23413.6486-.3415.3104-.58691.6968-.71162 1.1202-.13889.4721-.23652 1.1-.30252 1.7465l-.01375.1295-.03025.3239-.011.1295-.00413.0648-.00962.1283C5.01375 14.73 5.00275 15.6556 5 15.9234v.1532c.00729.8463.04489 1.6921.11276 2.5362l.011.1295.011.1308c.06875.7125.17051 1.4213.32314 1.9408.12493.4232.37043.8093.71192 1.1195.34149.3102.76697.5337 1.23383.6481.66967.1644 2.12313.2628 3.64945.3238l.2352.0087.2351.0088.1196.005.2338.0074c1.8426.0573 3.6.0648 4.0249.0648h.1952c.8402-.0012 6.903-.0287 8.4981-.4173.467-.1145.8926-.3381 1.2341-.6486.3415-.3104.5869-.6968.7116-1.1202.1527-.5207.2544-1.2283.3232-1.9408l.0123-.1295.011-.1308c.099-1.1859.1114-2.3244.1128-2.5661v-.0934c-.0014-.233-.0124-1.2992-.1018-2.4378l-.011-.1295-.0302-.3239-.0138-.1295c-.066-.6465-.1636-1.2731-.3025-1.7465-.1251-.4233-.3706-.8094-.7121-1.1198-.3414-.3104-.7668-.53419-1.2336-.649-1.5442-.37619-7.2715-.41356-8.4018-.4173Zm-2.3926 10.0002v-6.0016l5.7162 3.002-5.7162 2.9996Z"/>
</svg>
